# xmcd
#
# Track frame offsets: 
#        150
#        11678
#        25354
#        38883
#        51936
#        64078
#        77679
#        89242
#        102321
#        114269
#        125280
#        136015
#        146812
#        158073
#        168655
#        179191
#        190045
#
# Disc length: 2677 seconds
#
# Revision: 3
# Processed by: cddbd v1.5.2PL0 Copyright (c) Steve Scherf et al.
# Submitted via: ExactAudioCopy v0.99pb5
#
DISCID=ee0a7311
DTITLE=Robert Johnson - King Of The Delta Blues Singers Vol. 2
DYEAR=2004
DGENRE=Blues
TTITLE0=Kind Hearted Woman Blues [SA 2580-2]
TTITLE1=I Believe I'll Dust My Broom [SA 2581-1]
TTITLE2=Sweet Home Chicago [SA 2582-1]
TTITLE3=Ramblin' On My Mind [SA 2583-1]
TTITLE4=Phonograph Blues [SA 2587-1]
TTITLE5=They're Red Hot [SA 2627-1]
TTITLE6=Dead Shrimp Blues [SA 2628-2]
TTITLE7=Preachin' Blues (Up Jumped The Devil) [SA 2632-1]
TTITLE8=I'm A Steady Rollin' Man [DAL 378-1]
TTITLE9=From Four Until Late [DAL 379-1]
TTITLE10=Little Queen Of Spades [DAL 395-2]
TTITLE11=Malted Milk [DAL 396-1]
TTITLE12=Drunken Hearted Man [DAL 397-2]
TTITLE13=Stop Breakin' Down Blues [DAL 399-1]
TTITLE14=Honeymoon Blues [DAL 401-1]
TTITLE15=Love In Vain Blues [DAL 402-1]
TTITLE16=Ramblin' On My Mind [SA 2583-2]
EXTD=YEAR: 1936
EXTT0=
EXTT1=
EXTT2=
EXTT3=
EXTT4=
EXTT5=
EXTT6=
EXTT7=
EXTT8=
EXTT9=
EXTT10=
EXTT11=
EXTT12=
EXTT13=
EXTT14=
EXTT15=
EXTT16=
PLAYORDER=
